<?xml version="1.0" encoding="UTF-8" standalone="no"?>
<!-- Created with Inkscape (http://www.inkscape.org/) -->

<svg
   version="1.1"
   id="svg2"
   width="365"
   height="90"
   viewBox="0 0 365.00001 90.000002"
   sodipodi:docname="logo.svg"
   inkscape:version="1.3.2 (091e20e, 2023-11-25, custom)"
   xmlns:inkscape="http://www.inkscape.org/namespaces/inkscape"
   xmlns:sodipodi="http://sodipodi.sourceforge.net/DTD/sodipodi-0.dtd"
   xmlns="http://www.w3.org/2000/svg"
   xmlns:svg="http://www.w3.org/2000/svg">
  <defs
     id="defs6">
    <rect
       x="98.294763"
       y="17.174178"
       width="200.60901"
       height="61.753959"
       id="rect3" />
  </defs>
  <sodipodi:namedview
     id="namedview4"
     pagecolor="#ffffff"
     bordercolor="#000000"
     borderopacity="0.25"
     inkscape:showpageshadow="2"
     inkscape:pageopacity="0.0"
     inkscape:pagecheckerboard="0"
     inkscape:deskcolor="#d1d1d1"
     showgrid="false"
     inkscape:zoom="2.7366667"
     inkscape:cx="194.76249"
     inkscape:cy="115.28624"
     inkscape:window-width="1920"
     inkscape:window-height="1017"
     inkscape:window-x="-8"
     inkscape:window-y="-8"
     inkscape:window-maximized="1"
     inkscape:current-layer="g8"
     inkscape:export-bgcolor="#ffffff00">
    <inkscape:page
       x="0"
       y="0"
       width="365"
       height="90"
       id="page1"
       margin="0"
       bleed="0"
       inkscape:export-filename="LiveOakLogoname.png"
       inkscape:export-xdpi="96"
       inkscape:export-ydpi="96" />
  </sodipodi:namedview>
  <g
     id="g8"
     inkscape:groupmode="layer"
     inkscape:label="ink_ext_XXXXXX"
     transform="matrix(1.3333333,0,0,-1.3333333,-3915.581,3079.4807)">
    <g
       id="g10"
       transform="matrix(0.00330058,0,0,0.00327669,2911.0254,2216.8802)">
      <path
         d="m 16795.2,17717 2654.4,-12.9 c 652.6,-1054.3 1454.1,-632.9 2483.5,-578.4 226.7,12 484.6,-7.3 892.4,-91.6 l 747.3,-154.7 c 806.1,-29.3 1279,-49.1 2058.5,183.2 177,52.7 323.2,77 462.8,69.6 457.9,-24.4 790.8,-265.6 1563.3,-265.6 l -51.5,-335 c -595.1,74.3 -958.4,119.7 -1546.2,12.8 -178.1,-71.2 -319.2,-135 -455.8,-114.3 -780.8,118.6 -1466,66.8 -2108.4,49.9 l -837.5,-90.2 c -704.7,-74.2 -24.3,-173.6 244.8,-193.3 l 476.7,12.9 c 711.3,71.2 1236.6,114.4 1945.7,0 591.1,-164.2 825.7,-206.6 1193.9,-216.7 327.4,-9.1 629,3.2 957.9,-28.1 l -128.8,-682.9 c -384.9,41.8 -681.2,105.3 -980,187 -816.3,223.1 -1355.3,438.8 -2228.4,392.8 1077,-451.6 1555.5,-499.5 2435.3,-1404.5 l 283.4,-373.6 -180.4,-373.7 -1597.7,283.5 c 368.8,-312.7 826,-805.9 1185.4,-1069.5 l -257.7,-360.8 c -550.3,478 -1114.4,936 -1662.2,1417.4 l -940.6,-154.6 c 137.8,-300.6 165.3,-423.6 232,-747.4 405.9,-78.9 1957.5,-505.7 2280.6,-695.8 l -579.8,-708.6 c -584.3,522.8 -829.5,814.6 -1597.8,979.2 l 51.6,-1133.9 51.5,-837.5 244.8,-219 -438.1,-335.1 c -216.6,433.3 -444.6,754.3 -657.1,1211.2 -280.9,814.6 -397.3,929.7 -902,1623.6 l -335,322.1 c 448.3,-1220.4 381.4,-2212.1 979.3,-2860.5 l 335,-399.4 167.5,-206.21 -244.8,-128.84 c -230.4,256.95 -403.2,467.85 -605.6,747.35 119.8,-386.1 211,-538.9 412.3,-889.08 l -335,-180.41 c -239.7,468.41 -391.6,786.99 -511.4,1311.59 -72.6,318.2 -106.6,618.9 -145.7,1059.3 -194.7,919.9 -329.7,1237.5 -876.2,1971.4 -474.2,533.4 -617.6,801.8 -1109.3,1129 -803.8,534.7 -832.4,1064.7 -1480.6,1770.2 0,-1114.1 152.1,-669.1 566.9,-1533.4 l 128.9,-386.5 193.2,-412.3 322.2,-463.9 c 902.9,-1063.5 1793.1,-1615 2100.2,-3028 l 103.1,-579.8 206.2,-592.77 167.5,-425.2 -463.9,-193.28 c -224.7,449.39 -289.4,622.52 -386.5,1108.15 -65.2,-464.36 -105.1,-819.8 -116,-1288.53 l -347.9,-115.98 c 0,518.68 21.1,844.92 103.1,1352.91 -81.7,1688 -410,1873 -1572,3105.4 l -309.2,373.6 c -72.5,-151.7 -299.5,-786.9 -543.3,-1259 -180.3,-349 -403.5,-585.6 -405.6,-592.8 -49,-169.6 95.8,-307 652.5,-609.2 1223.4,-676.2 751.5,-547.6 1198.3,-1391.64 413.7,-379.23 555.1,-477.2 644.3,-1056.58 l -438.1,-115.96 c -50.3,419.29 -96.2,431.17 -386.6,721.57 -145.6,-315.48 -244.9,-544.34 -347.9,-876.19 l -476.7,-12.88 c 66.9,519.22 432,1023.14 476.3,1239.45 114.8,560.13 -461.6,910.93 -850,1157.23 l -515.4,283.4 -322.1,90.2 -180.4,-25.8 257.7,-566.9 c 354.8,-975.56 376.3,-1280.23 0,-2242.01 l -670,12.88 c 596.4,1697.38 159.2,1131.79 -64.5,2409.53 -137.1,-336.7 -263.9,-623.2 -420.1,-948.1 -215.5,-448.35 -234,-812.89 -211.2,-1384.11 l -515.4,128.84 c 60.4,1248.07 59.3,1413.1 760.2,2473.97 l 502.5,734.4 -566.9,670.1 -283.5,283.4 c -99.2,-726.9 -32.9,-754.4 -554.1,-1275.6 -580.5,-638.6 -619.9,-611.3 -824.6,-1430.25 l -51.6,-927.72 -38.6,-244.82 -309.3,90.18 38.7,786 -541.2,-322.12 v -219.06 l -489.6,219.06 103.1,141.73 v 463.87 l 51.5,528.33 51.5,347.9 c -254.6,-226.4 -207.5,-201.1 -541.1,-270.6 -526.4,-91.6 -449.8,-199.9 -541.2,-695.83 l -528.3,309.23 c 216.5,249.8 281.2,537 445.8,713.1 82.3,87.9 198.3,154.7 404.6,227.5 l 270.6,154.7 180.4,347.8 167.5,618.5 c 135.9,741.4 120.9,911.5 528.3,1533.4 578.7,560.6 777.3,698.9 1507.6,1056.5 173.5,184.7 1319.4,1386.2 1252,1563.6 -86.9,228.1 -454.8,199.4 -789,70.4 -624.1,-240.9 -661.8,-645.2 -926.9,-1195.9 -716.8,-963.9 -1038.6,-1276.5 -2216.2,-1778.1 l -141.8,-528.3 -180.4,-502.5 -231.9,-399.5 -257.7,-412.3 -244.8,-373.6 -116,-399.5 -51.5,-335 -219.1,180.4 25.8,373.7 103.1,283.4 244.8,463.9 373.7,554.1 244.8,566.9 128.8,463.9 -347.9,-154.7 c -476.7,-549 -618.4,-915.8 -992.1,-1507.5 l -309.3,-502.5 -309.2,360.7 c 325.5,479.8 538.5,1000.8 850.4,1507.6 -506.4,-399.8 -798.6,-619.6 -1146.8,-1172.5 l -244.8,347.9 c 385.9,440.9 668.1,700.4 1047.2,954.4 1147,768.5 1753.1,539.5 2882.8,1480.8 l 476.7,476.8 c 332.4,726.9 126.2,548.4 -386.5,167.5 -972.1,-850.6 -873.7,-785.7 -1987.3,-1192.6 -388.1,-141.8 -572.3,-365.7 -1118,-791.7 -426.1,-271.1 -827.6,-420.6 -1211.25,-670 l -244.82,347.9 c 392.37,220.7 699.77,321.2 1095.27,502.5 l 231.9,206.1 c -607.6,-69 -913.8,-116.8 -1443.13,-476.7 l -180.4,270.6 c 588.69,310.7 890.33,391.6 1533.33,541.2 l 476.8,25.7 c 593.9,479.7 777.9,585.5 1533.3,682.9 l 798.9,670.1 502.5,399.4 695.8,515.4 322.1,270.6 -863.3,-116 -476.7,-115.9 c -387.6,-458.1 -585.4,-759.8 -1211.2,-798.9 -542.2,-542.1 -827.8,-803.7 -1211.9,-929.3 -312.8,-102.3 -691,-114.4 -1326.5,-114.4 -333.29,-232.3 -595.52,-387.7 -953.52,-579.8 l -154.62,309.2 296.35,206.2 347.91,154.6 c -258.63,91.3 -219.64,77.2 -489.64,25.8 l -244.82,-141.8 -128.84,373.7 c 611.56,305.8 796.97,316.8 1468.88,167.5 480.9,-67.1 783.6,-103.5 1054.9,-33.9 267.6,68.7 504.7,240.6 852.1,588 l -386.5,51.5 -541.2,51.5 c -732.2,-332.8 -1438.26,-362.8 -2229.14,-412.3 l -347.9,-12.9 -51.54,412.4 c 447.78,117.8 632.65,134.9 1095.24,154.6 464.74,90.3 654.14,116.6 1082.34,322.1 l -1146.77,-103.1 -592.71,-64.4 -549.24,-93.5 -38.66,335 c 773.08,50.4 2217.68,412.3 2858.48,222.2 118.8,-35.2 244,-88.7 383.8,-167.3 l 618.4,-64.5 c 205,0 1004.3,-26.8 1044.5,224.4 39.1,243.7 -534.8,328.5 -1076.2,354.2 -381.3,18.1 -746.5,6.9 -870.2,1.3 -992.5,-177.8 -2010.42,-328.5 -3017.67,-387.8 l -36.13,349.1 c 1096.47,98.7 1912.7,188.6 2989.4,412.3 427.1,56.4 782.9,121.8 1217.3,60 333.7,-47.5 661.5,-200.5 993.3,-215.8 458.5,-21.1 882.8,212 1339.4,209.9 406.2,-1.9 460,-226.4 1044.5,-149.1 236.2,31.2 481.8,99.9 635.5,210.8 166.3,120.1 119.4,209.2 233.2,361 z m 6487.9,-1958.6 c 1052.4,-431.3 2455.7,-747.3 3131.1,-1726.6 l -592.7,128.9 -670.1,180.3 -618.4,64.5 -837.6,901.9 z M 22278,15513.6 c 940.5,-262.5 1090,-530.5 1687.9,-1224.1 l -670,-141.8 c -313.6,571.9 -555.6,903.6 -1017.9,1365.9 z m 360.8,-2667.3 c 391.3,-521.7 557.2,-962.1 798.9,-1559.1 -45.9,488.8 -95,968.8 -154.7,1456.1 z m -1017.9,1108.2 c 250.1,-477.6 582.5,-537.4 1069.4,-734.5 l 567,-128.8 c -81.5,210.5 -163,420.9 -244.8,631.3 -538.9,30 -873.1,81.4 -1391.6,232 z m 1224,167.5 c -829.9,158.1 -1488.7,174 -2074.5,798.8 -55.2,108.4 -127.1,189.3 -209.8,258.7 -243.3,204.1 -581.2,309.3 -872.5,720.6 -45.9,192.6 -73.4,280.1 -34.7,336.9 144.7,212.6 559.1,151 928.7,37.1 600.3,-184.8 673.3,-292.8 1096.3,-740.5 465.5,-492.5 793.3,-851.8 1166.5,-1411.6 z m -5076.8,-1765.3 -77.3,-128.8 -438.1,528.3 c -468.4,496.4 -1160.4,953.4 -762.4,1704.5 106.7,201.3 647.9,999.3 939.8,954.5 1167.2,-179.1 632.1,-2289.4 338,-3058.5 z M 14018.5,9805.48 c 0,459.82 36.2,586.72 154.7,1030.82 l 309.2,605.6 c 422.1,804 468.2,1212.6 373.7,2126 261.3,205.4 481.4,389.9 786,528.3 20.9,-386.9 0.1,-511 107.3,-717.3 371.5,-715.4 281,-934.2 -184.6,-1679.3 -856.9,-757.9 -732.4,-1362 -1546.3,-1894.12 z m 45.1,1630.02 c 68.7,541.9 55.7,1131.4 373.7,1597.7 l 109.5,116 c 20.2,-807.1 -110.6,-1024.6 -483.2,-1713.7"
         style="display:inline;fill:#4b49ac;fill-opacity:1;fill-rule:evenodd;stroke:none"
         id="path14" />
      <path
         d="m 16804.4,18203.3 h 2628.5 c 412.8,825.6 888.4,750.4 1752.4,824 888.4,-10.2 1694.5,101.7 2520.4,107.2 1376.8,9.6 2376.3,-150.5 3935,22.6 l -64.5,270.3 c -1399.9,-87.9 -2632,83.5 -3935,39.1 -440.1,-14.6 -800.3,-69.9 -1244.8,-39.1 l -515,206.1 c -927.3,250.3 -1719.1,321.9 -2564.5,-206.1 319.9,1046.9 1324.7,1341 2152.2,2139 l 464.1,115.8 c 1530,353 1790.1,-57.3 3152.3,-26.7 457.8,9.3 906.4,136.9 1563.1,491 l 103.1,154.4 -154.6,25.9 c -546.5,-284.4 -1012.8,-372.1 -1512.4,-369.9 -322.4,0.9 -658.4,39.2 -1038.9,86 -1102.3,250.8 -1386.5,139.2 -2447.7,-12.6 670.7,959.2 3138.8,1125.4 4329.3,1571.3 l -232.6,310 c -1135.6,-353 -1874.5,-645.9 -3066.3,-798.9 l 231.7,244.5 c 202.9,434 407.3,839.4 631.7,1262.7 l 257.9,489.7 167,270.8 167.8,180.5 -438.1,296.3 -502.7,-1133.7 -515.3,-1005.6 c -739.7,-905.3 -1134.9,-1200.7 -2036.3,-1945.9 -1180.3,-959.8 -1496.1,-904.4 -2215.9,-2344.6 97,750.1 447.5,1264.6 682.9,1971.8 l 245,463.2 657,824.8 876,902 c 288.5,375.6 469.6,591.9 657.8,1035.6 129.8,306.2 194.9,560 244.2,906.9 67.5,472.4 225.1,784.9 399.3,1227.2 l -489.2,193.7 -361,-993.2 c -73.8,412.9 -127.8,769.2 -167,1186.1 l -335.3,128.7 c 129.5,-1054.3 367.6,-2634.8 -462.2,-3469.5 -455.8,-458.6 -775.2,-759.5 -1251.9,-1400.8 -366.8,697.8 -494.4,1275.7 -1030.7,1829.3 l 116.3,425.8 c 607.4,148.5 973.9,268.1 1232.4,532.1 213.6,218.6 353.3,536.3 494.1,1052.7 498.5,527.8 559.1,410.6 708.2,1133.8 l -450.5,90.1 c -50.7,-357.7 -83.5,-458.3 -361,-695.9 -157.7,297.4 -255.5,510.1 -373.5,824.8 l -476.7,63.7 c 127,-482.8 289.4,-857 502.4,-1300.7 -148,-444.8 -247.2,-687.3 -431.6,-857.6 -140.3,-129 -879.1,-503.5 -1026.2,-379.2 -216.4,183.2 -136.2,973 -132.9,1194.9 7.2,459.7 -5.2,905.3 -174.7,1356.7 l -579.8,12.6 c 249.7,-623.9 283.9,-985.2 331,-1484.5 39.4,-421.4 85.7,-837.8 120.1,-1260.2 -906.1,1022.9 -1011.1,1329.4 -1185.8,2628.4 l -424.7,-77.1 c -28.1,-1523.4 334.3,-2034.1 1288.1,-3208.6 l -412,-592.7 -682.9,-1069.3 -489.9,-747.4 c -430.2,263.5 -620.4,410.7 -813.6,624 -632.1,697.4 -540.1,903 -822.6,1756.2 -145.5,440.1 -321,852.9 -514.5,987.4 -118.5,82.4 -214.1,30.6 -529.9,265.9 -134.5,100.9 -172.8,244.8 -308.4,579.9 l -335.3,-219.4 c 169.7,-507.1 349.1,-663.9 685,-807.2 251.9,-106.9 343.7,-109.1 415.3,-171.9 198.7,-176.4 440.7,-1524.5 634.4,-1990 112.7,-270 257.4,-521.4 491.9,-762.5 258.2,-264.6 1084.4,-965.1 1407.4,-1203.2 334.3,-323.8 609.6,-428.8 639.9,-886.2 15.7,-240.6 24.5,-539.9 -44.1,-546 -40,-2.7 -338.4,143.3 -565.2,256.6 -308.1,153.8 -466.6,355.5 -593.1,597.2 -313,598.8 -285.2,735.8 -882.6,1273.7 -337.6,305.1 -702.8,487.5 -1274,696.7 -442.1,164.5 -781.3,252.4 -1108.4,579.5 l -398.8,670.2 -502.9,759.8 -257.7,387.2 -309.2,-322.5 515.4,-876 c 750.7,-1212.8 742.1,-1278.7 2074.5,-1688.2 502.1,-301.2 1519.8,-904.5 1456.5,-1545.2 -33.7,-342 -428.6,-500.1 -683.5,-658.1 l -669.6,-193.4 c -530.5,-213.9 -793.7,-292.4 -1099,-305.1 -710.5,-29.5 -1565,159.9 -2280.72,250 -505.68,63.6 -1010.82,106.6 -1542.68,106.6 l -51.54,-321.8 c 599.66,-39.2 1143.65,-117.4 1680.44,-205.6 1116.7,-182.7 1661.8,-332.1 2180.4,-317.8 349.2,9.1 686.2,93.4 1177.3,291.3 865.6,69.5 1693.1,14.1 2551.3,-90.1 610.4,-165.1 571.3,-86 850.4,-644.3 z m -538.2,5147.8 c -258.2,690 -1250.8,450.8 -1555.4,-4.4 504.4,-401 994.3,-458.9 1665.1,-162.9 -467.1,352.2 -869.5,232.3 -1246.2,327.7 327.1,-78.8 688.7,105.8 1136.5,-160.4 z m 417.8,313.6 c 536.3,750.7 -405.7,1614.6 -1091.6,1613.2 -64.7,-804.9 218,-1353.9 993.8,-1844.4 40.5,731.4 -365.5,1065.9 -530.3,1524.2 146.7,-395.4 591.4,-641.8 628.1,-1293 z m 1477.1,2429.5 c 790.6,95.3 792,1197.9 392.1,1633.6 -550.3,-426.9 -735.5,-926.7 -595.8,-1706.1 488.9,400.4 465.8,853.8 661.7,1225 -166.5,-323.6 -64.5,-750.2 -458,-1152.5 z m 1300.2,-2905.4 c 522.2,597.2 -211.1,1414.5 -797.8,1471.6 -122.7,-683.2 72.2,-1176.2 695,-1661.2 96.1,622.8 -223,942.5 -325.2,1348.4 92,-350.6 451.7,-598.3 428,-1158.8 z m 675.4,640.4 c 588.9,420.8 109.1,1300.2 -399.6,1473.8 -252.4,-581.2 -182.7,-1060.4 269.2,-1620.7 214.7,532.5 -1.1,883.3 -6.8,1264.9 8.2,-330.1 275.5,-625.5 137.2,-1118 z m -11.9,-1514.3 c 559.2,-459.1 1284,231.5 1319.5,768.3 -625.8,93.4 -1070.9,-98.3 -1495.3,-679.3 570.2,-70.5 852.9,229.6 1220.3,333.5 -317.2,-93.2 -533.3,-428 -1044.5,-422.5 z m 2271.4,1915.6 c -1017.5,529.3 -460.8,2016.6 299,2402.4 525.5,-855.3 523,-1622.6 -61.2,-2603.1 -456.6,787.6 -195.4,1386.5 -272,1986.7 61.2,-520.3 -292.9,-1043.9 34.2,-1786 z m 25.9,-541.6 c -248.9,-475 -943.6,-213 -1122.5,143.6 400.2,243.9 759.3,241.7 1217.3,-32.2 -369.3,-212.8 -649,-89.6 -929.6,-124.6 243.6,27.6 487.5,-138.3 834.8,13.2 z m 1222.4,932.1 c 124.3,604.3 975.9,534.6 1287,197.5 -366,-397.3 -763.4,-508.7 -1356.4,-349.7 340.3,351.7 688.9,304 988.5,431.6 -260.7,-107.8 -583.1,-1.4 -919.1,-279.4 z m -10143.4,910.2 c 552.5,114.4 488.6,892.9 180.5,1176.7 -363.5,-333.7 -465.2,-697.8 -320,-1239.3 321.6,311.2 278.6,629.5 395.2,903.7 -99.2,-238.4 -1.4,-533.3 -255.7,-841.1 z m 897,-1138.7 c 1318.3,272.3 1165.9,2129.4 430.7,2808.1 -867,-797.8 -1108.9,-1665 -764.2,-2959.4 768,743.5 665,1503.8 943,2156.7 -234.7,-567.7 -3.3,-1272.4 -609.5,-2005.4 z M 9841.39,19717 c 78.81,659.5 -813.78,877.5 -1246.17,639.7 237.83,-529.7 605.72,-778.3 1264.35,-819.1 -227.35,475.4 -599.1,545.7 -861.18,777.5 228.73,-198.7 594.7,-199.8 843,-598.1 z m 2524.31,-240.3 c 95.6,808.9 -999.3,1077 -1529.2,785.4 291.6,-650.6 742.7,-956.2 1551.8,-1005.8 -279.7,583.4 -735.5,669.6 -1057.4,954.3 281.1,-243.9 729.7,-245.3 1034.8,-733.9 z m -1041.2,3150.7 c -503.7,-639.6 -1467.96,-54.5 -1636.34,526.9 666.04,253.3 1201.54,150.2 1808.04,-387.2 -609.3,-214.4 -992.9,47.2 -1421.7,73.1 371.2,-26.5 689.5,-342 1250,-212.8 z m 1151.7,225.2 c 573.7,-341.7 1139.5,389.4 1096.8,883.8 -583.7,-2 -962.9,-238.4 -1269.3,-827.6 529.9,15.1 746.2,328.2 1066.7,473.4 -276.4,-128.7 -426.8,-464.3 -894.2,-529.6 z m -224.6,588.3 c 812.9,455.3 324.1,1649.1 -302.6,1943.1 -405.4,-707.1 -383.9,-1330.5 114.9,-2111.4 350.8,650.6 124,1130.4 170.9,1619 -36.7,-423.3 263.4,-839.4 16.8,-1450.7 z m -202,-1733.4 c -165.1,-1565.2 -2343.25,-1601.3 -3216.83,-824.5 828.11,1099.8 1809.13,1482.1 3354.03,1229.1 -776.5,-978.6 -1672.5,-945.8 -2399.98,-1344.3 633.58,339 1478.98,149.9 2262.78,939.7 z m 1743.6,-559.9 c -142.2,-808 -1276.5,-748.8 -1702.8,-313.1 470.4,542.4 994.8,705.8 1788.8,518.7 -438.8,-481.2 -904.5,-431.9 -1296.6,-612.9 341.1,152.9 774.3,24.5 1210.6,407.3 z m 10064.9,-1384 c -539.3,482 32.5,1304.6 557.2,1421.2 187.7,-604.1 66.7,-1073.1 -442.6,-1581.6 -156.5,553.1 95.9,878.3 142.8,1256.9 -43.3,-327.3 -341.2,-592.2 -257.4,-1096.5 z m 626.4,2956.4 c 343.9,-880.5 1611,-555.3 1993.5,33.4 -654.2,505.9 -1283.1,571.2 -2137.4,179.4 604.7,-443.4 1118.9,-282.2 1603.3,-397.7 -420.5,95.6 -880.4,-148 -1459.4,184.9 z M 21309,20202.3 c -73.6,1100.1 1425.3,1385.9 2121.4,954.1 -439.3,-858.4 -1071.2,-1239.6 -2168,-1250 418.9,768.6 1041.7,853.4 1495.9,1215.5 -396.6,-309.7 -1003.4,-280.2 -1449.3,-919.6 z m 3170.3,-166.1 c 146.8,1394.9 2088.3,1427.2 2867.1,734.1 -738.3,-980.2 -1612.4,-1320.6 -2989.8,-1095.1 692.3,872.4 1490.3,843.2 2139.3,1198.2 -564.6,-301.8 -1318.3,-133.1 -2016.6,-837.2 z m -7185.2,-853.8 c -21.5,649.6 39.4,997.9 -121,1435 -215.7,587.8 -858.1,786.5 -861.1,1010 -4.2,276.6 777.6,1316.1 968.9,1601.3 l 386.6,515.1 c 210,-481.2 561.6,-1400.2 533,-1895.2 -33.1,-594.9 -708.5,-1783.5 -906.4,-2666.2"
         style="display:inline;fill:#0dbbb4;fill-opacity:1;fill-rule:evenodd;stroke:none"
         id="path16" />
    </g>
    <text
       xml:space="preserve"
       transform="matrix(0.75000002,0,0,-0.75000002,2936.6858,2309.6106)"
       id="text3"
       style="white-space:pre;shape-inside:url(#rect3);opacity:1;fill:#1e24a8;fill-opacity:0.99999934" />
    <text
       xml:space="preserve"
       style="font-style:normal;font-variant:normal;font-weight:normal;font-stretch:normal;font-size:55.6394px;font-family:Bahnschrift;-inkscape-font-specification:'Bahnschrift, @wght=300,wdth=99.9';font-variant-ligatures:normal;font-variant-caps:normal;font-variant-numeric:normal;font-variant-east-asian:normal;font-variation-settings:'wdth' 99.9, 'wght' 300;opacity:1;fill:#4b49ac;fill-opacity:1;stroke-width:4.59468"
       x="3365"
       y="-2019.2609"
       id="text4"
       transform="scale(0.89593002,-1.1161586)"><tspan
         sodipodi:role="line"
         id="tspan5"
         x="3365"
         y="-2019.2609"
         style="stroke-width:4.59468">LiveOak</tspan></text>
  </g>
</svg>
